<?xml version="1.0" encoding="utf-8"?>
<!-- Generator: Adobe Illustrator 13.0.0, SVG Export Plug-In  -->
<!DOCTYPE svg PUBLIC "-//W3C//DTD SVG 1.1//EN" "http://www.w3.org/Graphics/SVG/1.1/DTD/svg11.dtd" [
	<!ENTITY ns_flows "http://ns.adobe.com/Flows/1.0/">
]>
<svg version="1.1"
	 xmlns="http://www.w3.org/2000/svg" xmlns:xlink="http://www.w3.org/1999/xlink" xmlns:a="http://ns.adobe.com/AdobeSVGViewerExtensions/3.0/"
	 x="0px" y="0px" width="248px" height="93px" viewBox="0 -0.581 248 93" enable-background="new 0 -0.581 248 93"
	 xml:space="preserve">
<defs>
</defs>
<polygon fill="#00A151" points="134.672,0 123.537,13.267 123.537,78.929 134.672,92.419 "/>
<polygon fill="#F39700" points="76.836,10.907 87.56,19.796 123.537,13.267 134.672,0 "/>
<polygon fill="#EA5506" points="87.56,28.451 87.56,19.797 76.836,10.908 76.836,28.451 "/>
<polygon points="17.771,32.337 8.394,43.869 8.305,43.869 8.305,32.337 0,32.337 0,60.589 8.305,60.589 8.305,47.755 8.394,47.755 
	18.084,60.589 28.668,60.589 16.254,45.493 27.777,32.337 "/>
<g>
	<defs>
		<rect id="SVGID_1_" y="0" width="247.285" height="92.419"/>
	</defs>
	<clipPath id="SVGID_2_">
		<use xlink:href="#SVGID_1_"  overflow="visible"/>
	</clipPath>
	<path clip-path="url(#SVGID_2_)" d="M49.708,31.853c-11.435,0-19.697,4.084-19.697,14.73c0,10.686,9.603,14.491,17.911,14.491
		c2.857,0,6.788-0.08,12.057-1.293V45.285h-8.041v9.718c-0.755,0.322-1.829,0.482-2.943,0.482c-6.074,0-10.408-3.357-10.408-8.903
		c0-6.597,5.537-9.146,12.279-9.146c3.408,0,7.051,1.184,9.113,2.293v-6.328C57.39,32.486,52.625,31.853,49.708,31.853"/>
	<path clip-path="url(#SVGID_2_)" d="M95.876,49.861c0,7.73-5.54,11.213-13.669,11.213s-13.664-3.482-13.664-11.213V32.338h8.304
		v16.267c0,3.727,1.118,6.881,5.36,6.881s5.359-3.154,5.359-6.881V32.338h8.31V49.861z"/>
	<polygon clip-path="url(#SVGID_2_)" fill="#004EA2" points="123.537,78.929 87.56,72.626 87.56,65.007 76.836,65.007 
		76.836,81.517 134.672,92.419 	"/>
	<polygon clip-path="url(#SVGID_2_)" points="147.332,31.558 150.34,31.558 150.34,36.587 150.372,36.587 153.769,31.558 
		157.385,31.558 153.223,37.3 157.712,43.886 153.88,43.886 150.372,38.287 150.34,38.287 150.34,43.886 147.332,43.886 	"/>
	<polygon clip-path="url(#SVGID_2_)" points="162.114,39.248 157.938,31.559 161.398,31.559 163.611,36.512 165.794,31.559 
		169.251,31.559 165.111,39.248 165.111,43.887 162.114,43.887 	"/>
	<path clip-path="url(#SVGID_2_)" d="M172.43,37.726c0-2.139,0.732-3.936,2.554-3.936c1.823,0,2.556,1.797,2.556,3.936
		c0,2.025-0.732,3.932-2.556,3.932C173.162,41.658,172.43,39.751,172.43,37.726 M169.327,37.726c0,3.918,1.974,6.371,5.656,6.371
		c3.686,0,5.655-2.453,5.655-6.371c0-3.959-1.938-6.377-5.655-6.377C171.264,31.349,169.327,33.767,169.327,37.726"/>
	<polygon clip-path="url(#SVGID_2_)" points="182.719,31.558 186.543,31.558 190.362,39.927 190.398,39.927 190.349,31.558 
		193.093,31.558 193.093,43.886 189.359,43.886 185.413,35.464 185.383,35.464 185.482,43.886 182.719,43.886 	"/>
	<path clip-path="url(#SVGID_2_)" d="M206.188,43.533c-1.91,0.525-3.333,0.564-4.365,0.564c-3.006,0-6.476-1.658-6.476-6.32
		c0-4.648,2.986-6.428,7.123-6.428c0.742,0,2.317,0.086,3.406,0.547l-0.236,2.688c-0.938-0.602-2.04-0.793-2.753-0.793
		c-2.439,0-4.438,1.107-4.438,3.986c0,2.412,1.563,3.881,3.761,3.881c0.409,0,0.792-0.066,1.066-0.211v-2.435h-1.762v-2.329h4.674
		V43.533z"/>
	<path clip-path="url(#SVGID_2_)" d="M218.939,43.533c-1.913,0.525-3.339,0.564-4.368,0.564c-3.006,0-6.479-1.658-6.479-6.32
		c0-4.648,2.991-6.428,7.125-6.428c0.743,0,2.308,0.086,3.41,0.547l-0.243,2.688c-0.943-0.602-2.037-0.793-2.75-0.793
		c-2.439,0-4.439,1.107-4.439,3.986c0,2.412,1.567,3.881,3.761,3.881c0.41,0,0.795-0.066,1.066-0.211v-2.435h-1.755v-2.329h4.672
		V43.533z"/>
	<rect x="221.579" y="31.559" clip-path="url(#SVGID_2_)" width="3.006" height="12.328"/>
	<path clip-path="url(#SVGID_2_)" d="M157.224,57.056c0,3.371-2.001,4.887-4.944,4.887c-2.945,0-4.947-1.516-4.947-4.887v-7.652
		h3.006v7.102c0,1.623,0.405,2.998,1.941,2.998c1.537,0,1.937-1.375,1.937-2.998v-7.102h3.008V57.056z"/>
	<polygon clip-path="url(#SVGID_2_)" points="159.559,49.404 163.396,49.404 167.202,57.781 167.236,57.781 167.188,49.404 
		169.936,49.404 169.936,61.732 166.202,61.732 162.26,53.31 162.232,53.31 162.324,61.732 159.559,61.732 	"/>
	<rect x="172.579" y="49.404" clip-path="url(#SVGID_2_)" width="3.005" height="12.327"/>
	<polygon clip-path="url(#SVGID_2_)" points="177.294,49.404 180.493,49.404 182.998,59.08 183.027,59.08 185.551,49.404 
		188.636,49.404 184.789,61.732 181.072,61.732 	"/>
	<polygon clip-path="url(#SVGID_2_)" points="190.115,49.404 198.066,49.404 198.066,51.738 193.123,51.738 193.123,54.279 
		197.79,54.279 197.79,56.613 193.123,56.613 193.123,59.406 198.242,59.406 198.242,61.732 190.115,61.732 	"/>
	<path clip-path="url(#SVGID_2_)" d="M203.345,51.738h0.791c1.15,0,2.2,0.209,2.2,1.359c0,1.398-1.231,1.432-2.2,1.432h-0.791
		V51.738z M200.34,61.732h3.005v-4.875h0.629c1.118,0,1.509,0.527,2.118,2.646l0.649,2.229h3.13l-1.094-3.361
		c-0.566-1.5-0.631-2.424-1.6-2.715v-0.035c1.455-0.369,2.166-1.463,2.166-3.105c0-2.115-1.633-3.111-3.634-3.111h-5.37V61.732z"/>
	<path clip-path="url(#SVGID_2_)" d="M211.58,58.689c0.774,0.465,1.857,0.814,3.104,0.814c0.957,0,1.857-0.211,1.857-1.199
		c0-2.289-5.333-0.84-5.333-5.336c0-2.965,2.65-3.773,4.915-3.773c1.082,0,2.143,0.178,2.906,0.457l-0.188,2.545
		c-0.783-0.389-1.652-0.563-2.51-0.563c-0.757,0-2.021,0.066-2.021,1.143c0,1.998,5.337,0.656,5.337,5.105
		c0,3.193-2.458,4.061-4.963,4.061c-1.046,0-2.357-0.176-3.36-0.527L211.58,58.689z"/>
	<rect x="221.921" y="49.404" clip-path="url(#SVGID_2_)" width="3.003" height="12.327"/>
	<polygon clip-path="url(#SVGID_2_)" points="229.461,51.845 226.68,51.845 226.68,49.404 235.239,49.404 235.239,51.845 
		232.461,51.845 232.461,61.732 229.461,61.732 	"/>
	<polygon clip-path="url(#SVGID_2_)" points="240.147,57.085 235.982,49.404 239.438,49.404 241.652,54.356 243.833,49.404 
		247.285,49.404 243.15,57.085 243.15,61.731 240.147,61.731 	"/>
</g>
</svg>
